<mxfile host="Electron" modified="2024-06-10T18:07:37.796Z" agent="Mozilla/5.0 (Windows NT 10.0; Win64; x64) AppleWebKit/537.36 (KHTML, like Gecko) draw.io/24.5.1 Chrome/124.0.6367.207 Electron/30.0.6 Safari/537.36" etag="PpmmbDXxq_rtWp6fgfEl" version="24.5.1" type="device">
  <diagram name="Page-1" id="yOkab8tS-ocWw1erwLBM">
    <mxGraphModel dx="1509" dy="1015" grid="1" gridSize="5" guides="0" tooltips="1" connect="0" arrows="1" fold="1" page="1" pageScale="1" pageWidth="1200" pageHeight="600" math="0" shadow="0">
      <root>
        <mxCell id="0" />
        <mxCell id="1" parent="0" />
        <mxCell id="3YORw4eYY-1OEMy_Ppgu-64" style="edgeStyle=orthogonalEdgeStyle;rounded=0;orthogonalLoop=1;jettySize=auto;html=1;exitX=0.5;exitY=1;exitDx=0;exitDy=0;entryX=0.5;entryY=0;entryDx=0;entryDy=0;linecap=round;" edge="1" parent="1" source="3YORw4eYY-1OEMy_Ppgu-2" target="3YORw4eYY-1OEMy_Ppgu-41">
          <mxGeometry relative="1" as="geometry" />
        </mxCell>
        <mxCell id="3YORw4eYY-1OEMy_Ppgu-2" value="Lane 0" style="rounded=0;whiteSpace=wrap;html=1;linecap=round;" vertex="1" parent="1">
          <mxGeometry x="20" y="20" width="80" height="40" as="geometry" />
        </mxCell>
        <mxCell id="3YORw4eYY-1OEMy_Ppgu-3" value="Lane 1" style="rounded=0;whiteSpace=wrap;html=1;linecap=round;" vertex="1" parent="1">
          <mxGeometry x="110" y="20" width="80" height="40" as="geometry" />
        </mxCell>
        <mxCell id="3YORw4eYY-1OEMy_Ppgu-4" value="Lane 2" style="rounded=0;whiteSpace=wrap;html=1;linecap=round;" vertex="1" parent="1">
          <mxGeometry x="200" y="20" width="80" height="40" as="geometry" />
        </mxCell>
        <mxCell id="3YORw4eYY-1OEMy_Ppgu-5" value="Lane 3" style="rounded=0;whiteSpace=wrap;html=1;linecap=round;" vertex="1" parent="1">
          <mxGeometry x="290" y="20" width="80" height="40" as="geometry" />
        </mxCell>
        <mxCell id="3YORw4eYY-1OEMy_Ppgu-6" value="Lane 4" style="rounded=0;whiteSpace=wrap;html=1;linecap=round;" vertex="1" parent="1">
          <mxGeometry x="380" y="20" width="80" height="40" as="geometry" />
        </mxCell>
        <mxCell id="3YORw4eYY-1OEMy_Ppgu-7" value="Lane 5" style="rounded=0;whiteSpace=wrap;html=1;linecap=round;" vertex="1" parent="1">
          <mxGeometry x="470" y="20" width="80" height="40" as="geometry" />
        </mxCell>
        <mxCell id="3YORw4eYY-1OEMy_Ppgu-8" value="Lane 6" style="rounded=0;whiteSpace=wrap;html=1;linecap=round;" vertex="1" parent="1">
          <mxGeometry x="560" y="20" width="80" height="40" as="geometry" />
        </mxCell>
        <mxCell id="3YORw4eYY-1OEMy_Ppgu-9" value="Lane 7" style="rounded=0;whiteSpace=wrap;html=1;linecap=round;" vertex="1" parent="1">
          <mxGeometry x="650" y="20" width="80" height="40" as="geometry" />
        </mxCell>
        <mxCell id="3YORw4eYY-1OEMy_Ppgu-10" value="Lane 8" style="rounded=0;whiteSpace=wrap;html=1;linecap=round;" vertex="1" parent="1">
          <mxGeometry x="740" y="20" width="80" height="40" as="geometry" />
        </mxCell>
        <mxCell id="3YORw4eYY-1OEMy_Ppgu-11" value="Lane 9" style="rounded=0;whiteSpace=wrap;html=1;linecap=round;" vertex="1" parent="1">
          <mxGeometry x="830" y="20" width="80" height="40" as="geometry" />
        </mxCell>
        <mxCell id="3YORw4eYY-1OEMy_Ppgu-12" value="Lane 10" style="rounded=0;whiteSpace=wrap;html=1;linecap=round;" vertex="1" parent="1">
          <mxGeometry x="920" y="20" width="80" height="40" as="geometry" />
        </mxCell>
        <mxCell id="3YORw4eYY-1OEMy_Ppgu-13" value="Lane 0" style="rounded=0;whiteSpace=wrap;html=1;linecap=round;" vertex="1" parent="1">
          <mxGeometry x="20" y="540" width="80" height="40" as="geometry" />
        </mxCell>
        <mxCell id="3YORw4eYY-1OEMy_Ppgu-14" value="Lane 1" style="rounded=0;whiteSpace=wrap;html=1;linecap=round;" vertex="1" parent="1">
          <mxGeometry x="110" y="540" width="80" height="40" as="geometry" />
        </mxCell>
        <mxCell id="3YORw4eYY-1OEMy_Ppgu-15" value="Lane 2" style="rounded=0;whiteSpace=wrap;html=1;linecap=round;" vertex="1" parent="1">
          <mxGeometry x="200" y="540" width="80" height="40" as="geometry" />
        </mxCell>
        <mxCell id="3YORw4eYY-1OEMy_Ppgu-16" value="Lane 3" style="rounded=0;whiteSpace=wrap;html=1;linecap=round;" vertex="1" parent="1">
          <mxGeometry x="290" y="540" width="80" height="40" as="geometry" />
        </mxCell>
        <mxCell id="3YORw4eYY-1OEMy_Ppgu-17" value="Lane 4" style="rounded=0;whiteSpace=wrap;html=1;linecap=round;" vertex="1" parent="1">
          <mxGeometry x="380" y="540" width="80" height="40" as="geometry" />
        </mxCell>
        <mxCell id="3YORw4eYY-1OEMy_Ppgu-18" value="Lane 5" style="rounded=0;whiteSpace=wrap;html=1;linecap=round;" vertex="1" parent="1">
          <mxGeometry x="470" y="540" width="80" height="40" as="geometry" />
        </mxCell>
        <mxCell id="3YORw4eYY-1OEMy_Ppgu-19" value="Lane 6" style="rounded=0;whiteSpace=wrap;html=1;linecap=round;" vertex="1" parent="1">
          <mxGeometry x="560" y="540" width="80" height="40" as="geometry" />
        </mxCell>
        <mxCell id="3YORw4eYY-1OEMy_Ppgu-20" value="Lane 7" style="rounded=0;whiteSpace=wrap;html=1;linecap=round;" vertex="1" parent="1">
          <mxGeometry x="650" y="540" width="80" height="40" as="geometry" />
        </mxCell>
        <mxCell id="3YORw4eYY-1OEMy_Ppgu-21" value="Lane 8" style="rounded=0;whiteSpace=wrap;html=1;linecap=round;" vertex="1" parent="1">
          <mxGeometry x="740" y="540" width="80" height="40" as="geometry" />
        </mxCell>
        <mxCell id="3YORw4eYY-1OEMy_Ppgu-22" value="Lane 9" style="rounded=0;whiteSpace=wrap;html=1;linecap=round;" vertex="1" parent="1">
          <mxGeometry x="830" y="540" width="80" height="40" as="geometry" />
        </mxCell>
        <mxCell id="3YORw4eYY-1OEMy_Ppgu-23" value="Lane 10" style="rounded=0;whiteSpace=wrap;html=1;linecap=round;" vertex="1" parent="1">
          <mxGeometry x="920" y="540" width="80" height="40" as="geometry" />
        </mxCell>
        <mxCell id="3YORw4eYY-1OEMy_Ppgu-31" value="In 0" style="rounded=0;whiteSpace=wrap;html=1;linecap=round;" vertex="1" parent="1">
          <mxGeometry x="1010" y="20" width="80" height="40" as="geometry" />
        </mxCell>
        <mxCell id="3YORw4eYY-1OEMy_Ppgu-32" value="In 1" style="rounded=0;whiteSpace=wrap;html=1;linecap=round;" vertex="1" parent="1">
          <mxGeometry x="1100" y="20" width="80" height="40" as="geometry" />
        </mxCell>
        <mxCell id="3YORw4eYY-1OEMy_Ppgu-66" style="edgeStyle=orthogonalEdgeStyle;rounded=0;orthogonalLoop=1;jettySize=auto;html=1;exitX=0.5;exitY=1;exitDx=0;exitDy=0;entryX=0.5;entryY=0;entryDx=0;entryDy=0;linecap=round;" edge="1" parent="1" source="3YORw4eYY-1OEMy_Ppgu-40" target="3YORw4eYY-1OEMy_Ppgu-45">
          <mxGeometry relative="1" as="geometry" />
        </mxCell>
        <mxCell id="3YORw4eYY-1OEMy_Ppgu-40" value="AES" style="ellipse;whiteSpace=wrap;html=1;aspect=fixed;linecap=round;" vertex="1" parent="1">
          <mxGeometry x="30" y="200" width="60" height="60" as="geometry" />
        </mxCell>
        <mxCell id="3YORw4eYY-1OEMy_Ppgu-65" style="edgeStyle=orthogonalEdgeStyle;rounded=0;orthogonalLoop=1;jettySize=auto;html=1;exitX=0.5;exitY=1;exitDx=0;exitDy=0;entryX=0.5;entryY=0;entryDx=0;entryDy=0;linecap=round;" edge="1" parent="1" source="3YORw4eYY-1OEMy_Ppgu-41" target="3YORw4eYY-1OEMy_Ppgu-40">
          <mxGeometry relative="1" as="geometry" />
        </mxCell>
        <mxCell id="3YORw4eYY-1OEMy_Ppgu-41" value="XOR" style="rhombus;whiteSpace=wrap;html=1;linecap=round;" vertex="1" parent="1">
          <mxGeometry x="30" y="100" width="60" height="60" as="geometry" />
        </mxCell>
        <mxCell id="3YORw4eYY-1OEMy_Ppgu-45" value="XOR" style="rhombus;whiteSpace=wrap;html=1;linecap=round;" vertex="1" parent="1">
          <mxGeometry x="30" y="300" width="60" height="60" as="geometry" />
        </mxCell>
        <mxCell id="3YORw4eYY-1OEMy_Ppgu-49" value="" style="endArrow=none;html=1;rounded=0;exitX=0.5;exitY=1;exitDx=0;exitDy=0;linecap=round;" edge="1" parent="1" source="3YORw4eYY-1OEMy_Ppgu-109">
          <mxGeometry width="50" height="50" relative="1" as="geometry">
            <mxPoint x="500" y="260" as="sourcePoint" />
            <mxPoint x="150" y="450" as="targetPoint" />
          </mxGeometry>
        </mxCell>
        <mxCell id="3YORw4eYY-1OEMy_Ppgu-50" value="" style="endArrow=classic;html=1;rounded=0;entryX=0.5;entryY=0;entryDx=0;entryDy=0;linecap=round;" edge="1" parent="1" target="3YORw4eYY-1OEMy_Ppgu-13">
          <mxGeometry width="50" height="50" relative="1" as="geometry">
            <mxPoint x="150" y="450" as="sourcePoint" />
            <mxPoint x="550" y="210" as="targetPoint" />
          </mxGeometry>
        </mxCell>
        <mxCell id="3YORw4eYY-1OEMy_Ppgu-51" value="" style="endArrow=none;html=1;rounded=0;exitX=0.5;exitY=1;exitDx=0;exitDy=0;linecap=round;" edge="1" parent="1">
          <mxGeometry width="50" height="50" relative="1" as="geometry">
            <mxPoint x="240" y="60" as="sourcePoint" />
            <mxPoint x="240" y="450" as="targetPoint" />
          </mxGeometry>
        </mxCell>
        <mxCell id="3YORw4eYY-1OEMy_Ppgu-52" value="" style="endArrow=none;html=1;rounded=0;exitX=0.5;exitY=1;exitDx=0;exitDy=0;linecap=round;" edge="1" parent="1" source="3YORw4eYY-1OEMy_Ppgu-5">
          <mxGeometry width="50" height="50" relative="1" as="geometry">
            <mxPoint x="360" y="170" as="sourcePoint" />
            <mxPoint x="330" y="450" as="targetPoint" />
          </mxGeometry>
        </mxCell>
        <mxCell id="3YORw4eYY-1OEMy_Ppgu-53" value="" style="endArrow=none;html=1;rounded=0;exitX=0.5;exitY=1;exitDx=0;exitDy=0;linecap=round;" edge="1" parent="1">
          <mxGeometry width="50" height="50" relative="1" as="geometry">
            <mxPoint x="510" y="60" as="sourcePoint" />
            <mxPoint x="510" y="450" as="targetPoint" />
          </mxGeometry>
        </mxCell>
        <mxCell id="3YORw4eYY-1OEMy_Ppgu-54" value="" style="endArrow=none;html=1;rounded=0;entryX=0.5;entryY=1;entryDx=0;entryDy=0;linecap=round;" edge="1" parent="1" target="3YORw4eYY-1OEMy_Ppgu-8">
          <mxGeometry width="50" height="50" relative="1" as="geometry">
            <mxPoint x="600" y="450" as="sourcePoint" />
            <mxPoint x="550" y="210" as="targetPoint" />
          </mxGeometry>
        </mxCell>
        <mxCell id="3YORw4eYY-1OEMy_Ppgu-55" value="" style="endArrow=classic;html=1;rounded=0;entryX=0.5;entryY=0;entryDx=0;entryDy=0;linecap=round;" edge="1" parent="1">
          <mxGeometry width="50" height="50" relative="1" as="geometry">
            <mxPoint x="240" y="450" as="sourcePoint" />
            <mxPoint x="150" y="540" as="targetPoint" />
          </mxGeometry>
        </mxCell>
        <mxCell id="3YORw4eYY-1OEMy_Ppgu-56" value="" style="endArrow=classic;html=1;rounded=0;entryX=0.5;entryY=0;entryDx=0;entryDy=0;linecap=round;" edge="1" parent="1">
          <mxGeometry width="50" height="50" relative="1" as="geometry">
            <mxPoint x="330" y="450" as="sourcePoint" />
            <mxPoint x="240" y="540" as="targetPoint" />
          </mxGeometry>
        </mxCell>
        <mxCell id="3YORw4eYY-1OEMy_Ppgu-57" value="" style="endArrow=classic;html=1;rounded=0;entryX=0.5;entryY=0;entryDx=0;entryDy=0;linecap=round;" edge="1" parent="1">
          <mxGeometry width="50" height="50" relative="1" as="geometry">
            <mxPoint x="510" y="450" as="sourcePoint" />
            <mxPoint x="420" y="540" as="targetPoint" />
          </mxGeometry>
        </mxCell>
        <mxCell id="3YORw4eYY-1OEMy_Ppgu-58" value="" style="endArrow=classic;html=1;rounded=0;entryX=0.5;entryY=0;entryDx=0;entryDy=0;linecap=round;" edge="1" parent="1">
          <mxGeometry width="50" height="50" relative="1" as="geometry">
            <mxPoint x="600" y="450" as="sourcePoint" />
            <mxPoint x="510" y="540" as="targetPoint" />
          </mxGeometry>
        </mxCell>
        <mxCell id="3YORw4eYY-1OEMy_Ppgu-59" value="" style="endArrow=classic;html=1;rounded=0;entryX=0.5;entryY=0;entryDx=0;entryDy=0;linecap=round;" edge="1" parent="1">
          <mxGeometry width="50" height="50" relative="1" as="geometry">
            <mxPoint x="690" y="450" as="sourcePoint" />
            <mxPoint x="600" y="540" as="targetPoint" />
          </mxGeometry>
        </mxCell>
        <mxCell id="3YORw4eYY-1OEMy_Ppgu-60" value="" style="endArrow=none;html=1;rounded=0;entryX=0.5;entryY=1;entryDx=0;entryDy=0;linecap=round;" edge="1" parent="1">
          <mxGeometry width="50" height="50" relative="1" as="geometry">
            <mxPoint x="690" y="450" as="sourcePoint" />
            <mxPoint x="690" y="60" as="targetPoint" />
          </mxGeometry>
        </mxCell>
        <mxCell id="3YORw4eYY-1OEMy_Ppgu-61" value="" style="endArrow=none;html=1;rounded=0;entryX=0.5;entryY=1;entryDx=0;entryDy=0;linecap=round;" edge="1" parent="1">
          <mxGeometry width="50" height="50" relative="1" as="geometry">
            <mxPoint x="870" y="450" as="sourcePoint" />
            <mxPoint x="870" y="60" as="targetPoint" />
          </mxGeometry>
        </mxCell>
        <mxCell id="3YORw4eYY-1OEMy_Ppgu-62" value="" style="endArrow=classic;html=1;rounded=0;entryX=0.5;entryY=0;entryDx=0;entryDy=0;linecap=round;" edge="1" parent="1">
          <mxGeometry width="50" height="50" relative="1" as="geometry">
            <mxPoint x="870" y="450" as="sourcePoint" />
            <mxPoint x="780" y="540" as="targetPoint" />
          </mxGeometry>
        </mxCell>
        <mxCell id="3YORw4eYY-1OEMy_Ppgu-67" value="" style="endArrow=none;html=1;rounded=0;linecap=round;" edge="1" parent="1">
          <mxGeometry width="50" height="50" relative="1" as="geometry">
            <mxPoint x="1020" y="130" as="sourcePoint" />
            <mxPoint x="1050" y="100" as="targetPoint" />
          </mxGeometry>
        </mxCell>
        <mxCell id="3YORw4eYY-1OEMy_Ppgu-68" value="" style="endArrow=classic;html=1;rounded=0;entryX=1;entryY=0.5;entryDx=0;entryDy=0;linecap=round;" edge="1" parent="1" target="3YORw4eYY-1OEMy_Ppgu-41">
          <mxGeometry width="50" height="50" relative="1" as="geometry">
            <mxPoint x="1020" y="130" as="sourcePoint" />
            <mxPoint x="620" y="430" as="targetPoint" />
          </mxGeometry>
        </mxCell>
        <mxCell id="3YORw4eYY-1OEMy_Ppgu-69" value="" style="endArrow=none;html=1;rounded=0;linejoin=round;linecap=round;" edge="1" parent="1">
          <mxGeometry width="50" height="50" relative="1" as="geometry">
            <mxPoint x="420" y="100" as="sourcePoint" />
            <mxPoint x="420" y="60" as="targetPoint" />
          </mxGeometry>
        </mxCell>
        <mxCell id="3YORw4eYY-1OEMy_Ppgu-70" value="" style="endArrow=none;html=1;rounded=0;linejoin=round;linecap=round;" edge="1" parent="1">
          <mxGeometry width="50" height="50" relative="1" as="geometry">
            <mxPoint x="190" y="330" as="sourcePoint" />
            <mxPoint x="420" y="100" as="targetPoint" />
          </mxGeometry>
        </mxCell>
        <mxCell id="3YORw4eYY-1OEMy_Ppgu-71" value="" style="endArrow=classic;html=1;rounded=0;entryX=1;entryY=0.5;entryDx=0;entryDy=0;linecap=round;" edge="1" parent="1" target="3YORw4eYY-1OEMy_Ppgu-45">
          <mxGeometry width="50" height="50" relative="1" as="geometry">
            <mxPoint x="190" y="330" as="sourcePoint" />
            <mxPoint x="620" y="430" as="targetPoint" />
          </mxGeometry>
        </mxCell>
        <mxCell id="3YORw4eYY-1OEMy_Ppgu-72" style="edgeStyle=orthogonalEdgeStyle;rounded=0;orthogonalLoop=1;jettySize=auto;html=1;exitX=0.5;exitY=1;exitDx=0;exitDy=0;entryX=0.5;entryY=0;entryDx=0;entryDy=0;linecap=round;" edge="1" parent="1" source="3YORw4eYY-1OEMy_Ppgu-73" target="3YORw4eYY-1OEMy_Ppgu-76">
          <mxGeometry relative="1" as="geometry" />
        </mxCell>
        <mxCell id="3YORw4eYY-1OEMy_Ppgu-73" value="AES" style="ellipse;whiteSpace=wrap;html=1;aspect=fixed;linecap=round;" vertex="1" parent="1">
          <mxGeometry x="390" y="270" width="60" height="60" as="geometry" />
        </mxCell>
        <mxCell id="3YORw4eYY-1OEMy_Ppgu-74" style="edgeStyle=orthogonalEdgeStyle;rounded=0;orthogonalLoop=1;jettySize=auto;html=1;exitX=0.5;exitY=1;exitDx=0;exitDy=0;entryX=0.5;entryY=0;entryDx=0;entryDy=0;linecap=round;" edge="1" parent="1" source="3YORw4eYY-1OEMy_Ppgu-75" target="3YORw4eYY-1OEMy_Ppgu-73">
          <mxGeometry relative="1" as="geometry" />
        </mxCell>
        <mxCell id="3YORw4eYY-1OEMy_Ppgu-75" value="XOR" style="rhombus;whiteSpace=wrap;html=1;linecap=round;" vertex="1" parent="1">
          <mxGeometry x="390" y="170" width="60" height="60" as="geometry" />
        </mxCell>
        <mxCell id="3YORw4eYY-1OEMy_Ppgu-76" value="XOR" style="rhombus;whiteSpace=wrap;html=1;linecap=round;" vertex="1" parent="1">
          <mxGeometry x="390" y="370" width="60" height="60" as="geometry" />
        </mxCell>
        <mxCell id="3YORw4eYY-1OEMy_Ppgu-77" value="" style="endArrow=none;html=1;rounded=0;entryX=0.5;entryY=1;entryDx=0;entryDy=0;linecap=round;" edge="1" parent="1" target="3YORw4eYY-1OEMy_Ppgu-76">
          <mxGeometry width="50" height="50" relative="1" as="geometry">
            <mxPoint x="420" y="450" as="sourcePoint" />
            <mxPoint x="620" y="430" as="targetPoint" />
          </mxGeometry>
        </mxCell>
        <mxCell id="3YORw4eYY-1OEMy_Ppgu-78" value="" style="endArrow=classic;html=1;rounded=0;entryX=0.5;entryY=0;entryDx=0;entryDy=0;linecap=round;" edge="1" parent="1">
          <mxGeometry width="50" height="50" relative="1" as="geometry">
            <mxPoint x="420" y="450" as="sourcePoint" />
            <mxPoint x="330" y="540" as="targetPoint" />
          </mxGeometry>
        </mxCell>
        <mxCell id="3YORw4eYY-1OEMy_Ppgu-79" style="edgeStyle=orthogonalEdgeStyle;rounded=0;orthogonalLoop=1;jettySize=auto;html=1;exitX=0.5;exitY=1;exitDx=0;exitDy=0;entryX=0.5;entryY=0;entryDx=0;entryDy=0;linecap=round;" edge="1" parent="1" source="3YORw4eYY-1OEMy_Ppgu-80" target="3YORw4eYY-1OEMy_Ppgu-83">
          <mxGeometry relative="1" as="geometry" />
        </mxCell>
        <mxCell id="3YORw4eYY-1OEMy_Ppgu-80" value="AES" style="ellipse;whiteSpace=wrap;html=1;aspect=fixed;linecap=round;" vertex="1" parent="1">
          <mxGeometry x="750" y="270" width="60" height="60" as="geometry" />
        </mxCell>
        <mxCell id="3YORw4eYY-1OEMy_Ppgu-81" style="edgeStyle=orthogonalEdgeStyle;rounded=0;orthogonalLoop=1;jettySize=auto;html=1;exitX=0.5;exitY=1;exitDx=0;exitDy=0;entryX=0.5;entryY=0;entryDx=0;entryDy=0;linecap=round;" edge="1" parent="1" source="3YORw4eYY-1OEMy_Ppgu-82" target="3YORw4eYY-1OEMy_Ppgu-80">
          <mxGeometry relative="1" as="geometry" />
        </mxCell>
        <mxCell id="3YORw4eYY-1OEMy_Ppgu-82" value="XOR" style="rhombus;whiteSpace=wrap;html=1;linecap=round;" vertex="1" parent="1">
          <mxGeometry x="750" y="170" width="60" height="60" as="geometry" />
        </mxCell>
        <mxCell id="3YORw4eYY-1OEMy_Ppgu-83" value="XOR" style="rhombus;whiteSpace=wrap;html=1;linecap=round;" vertex="1" parent="1">
          <mxGeometry x="750" y="370" width="60" height="60" as="geometry" />
        </mxCell>
        <mxCell id="3YORw4eYY-1OEMy_Ppgu-84" value="" style="endArrow=none;html=1;rounded=0;entryX=0.5;entryY=1;entryDx=0;entryDy=0;linecap=round;" edge="1" parent="1" target="3YORw4eYY-1OEMy_Ppgu-83">
          <mxGeometry width="50" height="50" relative="1" as="geometry">
            <mxPoint x="780" y="450" as="sourcePoint" />
            <mxPoint x="980" y="430" as="targetPoint" />
          </mxGeometry>
        </mxCell>
        <mxCell id="3YORw4eYY-1OEMy_Ppgu-85" value="" style="endArrow=classic;html=1;rounded=0;entryX=0.5;entryY=0;entryDx=0;entryDy=0;linecap=round;" edge="1" parent="1">
          <mxGeometry width="50" height="50" relative="1" as="geometry">
            <mxPoint x="780" y="450" as="sourcePoint" />
            <mxPoint x="690" y="540" as="targetPoint" />
          </mxGeometry>
        </mxCell>
        <mxCell id="3YORw4eYY-1OEMy_Ppgu-91" value="" style="endArrow=none;html=1;rounded=0;linejoin=round;linecap=round;" edge="1" parent="1">
          <mxGeometry width="50" height="50" relative="1" as="geometry">
            <mxPoint x="420" y="100" as="sourcePoint" />
            <mxPoint x="420" y="100" as="targetPoint" />
          </mxGeometry>
        </mxCell>
        <mxCell id="3YORw4eYY-1OEMy_Ppgu-93" value="" style="endArrow=none;html=1;rounded=0;linecap=round;" edge="1" parent="1">
          <mxGeometry width="50" height="50" relative="1" as="geometry">
            <mxPoint x="60" y="420" as="sourcePoint" />
            <mxPoint x="140" y="500" as="targetPoint" />
          </mxGeometry>
        </mxCell>
        <mxCell id="3YORw4eYY-1OEMy_Ppgu-94" value="" style="endArrow=none;html=1;rounded=0;entryX=0.5;entryY=1;entryDx=0;entryDy=0;linecap=round;" edge="1" parent="1" target="3YORw4eYY-1OEMy_Ppgu-45">
          <mxGeometry width="50" height="50" relative="1" as="geometry">
            <mxPoint x="60" y="420" as="sourcePoint" />
            <mxPoint x="615" y="425" as="targetPoint" />
          </mxGeometry>
        </mxCell>
        <mxCell id="3YORw4eYY-1OEMy_Ppgu-95" value="" style="endArrow=classic;html=1;rounded=0;entryX=0.5;entryY=0;entryDx=0;entryDy=0;linecap=round;" edge="1" parent="1" target="3YORw4eYY-1OEMy_Ppgu-23">
          <mxGeometry width="50" height="50" relative="1" as="geometry">
            <mxPoint x="920" y="500" as="sourcePoint" />
            <mxPoint x="615" y="425" as="targetPoint" />
          </mxGeometry>
        </mxCell>
        <mxCell id="3YORw4eYY-1OEMy_Ppgu-96" value="" style="endArrow=none;html=1;rounded=0;linecap=round;" edge="1" parent="1">
          <mxGeometry width="50" height="50" relative="1" as="geometry">
            <mxPoint x="140" y="500" as="sourcePoint" />
            <mxPoint x="920" y="500" as="targetPoint" />
          </mxGeometry>
        </mxCell>
        <mxCell id="3YORw4eYY-1OEMy_Ppgu-99" value="" style="endArrow=none;html=1;rounded=0;linecap=round;" edge="1" parent="1">
          <mxGeometry width="50" height="50" relative="1" as="geometry">
            <mxPoint x="480" y="400" as="sourcePoint" />
            <mxPoint x="780" y="100" as="targetPoint" />
          </mxGeometry>
        </mxCell>
        <mxCell id="3YORw4eYY-1OEMy_Ppgu-101" value="" style="endArrow=none;html=1;rounded=0;entryX=0.5;entryY=1;entryDx=0;entryDy=0;linecap=round;" edge="1" parent="1" target="3YORw4eYY-1OEMy_Ppgu-10">
          <mxGeometry width="50" height="50" relative="1" as="geometry">
            <mxPoint x="780" y="100" as="sourcePoint" />
            <mxPoint x="615" y="425" as="targetPoint" />
          </mxGeometry>
        </mxCell>
        <mxCell id="3YORw4eYY-1OEMy_Ppgu-104" value="" style="endArrow=classic;html=1;rounded=0;entryX=1;entryY=0.5;entryDx=0;entryDy=0;linecap=round;" edge="1" parent="1" target="3YORw4eYY-1OEMy_Ppgu-76">
          <mxGeometry width="50" height="50" relative="1" as="geometry">
            <mxPoint x="480" y="400" as="sourcePoint" />
            <mxPoint x="615" y="425" as="targetPoint" />
          </mxGeometry>
        </mxCell>
        <mxCell id="3YORw4eYY-1OEMy_Ppgu-105" value="" style="endArrow=none;html=1;rounded=0;linecap=round;" edge="1" parent="1">
          <mxGeometry width="50" height="50" relative="1" as="geometry">
            <mxPoint x="200" y="150" as="sourcePoint" />
            <mxPoint x="150" y="100" as="targetPoint" />
          </mxGeometry>
        </mxCell>
        <mxCell id="3YORw4eYY-1OEMy_Ppgu-106" value="" style="endArrow=none;html=1;rounded=0;linecap=round;" edge="1" parent="1">
          <mxGeometry width="50" height="50" relative="1" as="geometry">
            <mxPoint x="200" y="150" as="sourcePoint" />
            <mxPoint x="450" y="150" as="targetPoint" />
          </mxGeometry>
        </mxCell>
        <mxCell id="3YORw4eYY-1OEMy_Ppgu-107" value="" style="endArrow=classic;html=1;rounded=0;entryX=0;entryY=0.5;entryDx=0;entryDy=0;linecap=round;" edge="1" parent="1" target="3YORw4eYY-1OEMy_Ppgu-83">
          <mxGeometry width="50" height="50" relative="1" as="geometry">
            <mxPoint x="700" y="400" as="sourcePoint" />
            <mxPoint x="615" y="425" as="targetPoint" />
          </mxGeometry>
        </mxCell>
        <mxCell id="3YORw4eYY-1OEMy_Ppgu-108" value="" style="endArrow=none;html=1;rounded=0;linecap=round;" edge="1" parent="1">
          <mxGeometry width="50" height="50" relative="1" as="geometry">
            <mxPoint x="450" y="150" as="sourcePoint" />
            <mxPoint x="700" y="400" as="targetPoint" />
          </mxGeometry>
        </mxCell>
        <mxCell id="3YORw4eYY-1OEMy_Ppgu-110" value="" style="endArrow=none;html=1;rounded=0;exitX=0.5;exitY=1;exitDx=0;exitDy=0;linecap=round;" edge="1" parent="1" source="3YORw4eYY-1OEMy_Ppgu-3" target="3YORw4eYY-1OEMy_Ppgu-109">
          <mxGeometry width="50" height="50" relative="1" as="geometry">
            <mxPoint x="150" y="60" as="sourcePoint" />
            <mxPoint x="150" y="450" as="targetPoint" />
          </mxGeometry>
        </mxCell>
        <mxCell id="3YORw4eYY-1OEMy_Ppgu-109" value="" style="ellipse;whiteSpace=wrap;html=1;aspect=fixed;fillStyle=solid;fillColor=#000000;snapToPoint=0;linecap=round;" vertex="1" parent="1">
          <mxGeometry x="145" y="95" width="10" height="10" as="geometry" />
        </mxCell>
        <mxCell id="3YORw4eYY-1OEMy_Ppgu-111" value="" style="endArrow=none;html=1;rounded=0;linecap=round;" edge="1" parent="1" source="3YORw4eYY-1OEMy_Ppgu-126">
          <mxGeometry width="50" height="50" relative="1" as="geometry">
            <mxPoint x="1120" y="150" as="sourcePoint" />
            <mxPoint x="1140" y="130" as="targetPoint" />
          </mxGeometry>
        </mxCell>
        <mxCell id="3YORw4eYY-1OEMy_Ppgu-112" value="" style="endArrow=none;html=1;rounded=0;linecap=round;" edge="1" parent="1">
          <mxGeometry width="50" height="50" relative="1" as="geometry">
            <mxPoint x="530" y="150" as="sourcePoint" />
            <mxPoint x="1120" y="150" as="targetPoint" />
          </mxGeometry>
        </mxCell>
        <mxCell id="3YORw4eYY-1OEMy_Ppgu-113" value="" style="endArrow=none;html=1;rounded=0;linecap=round;" edge="1" parent="1">
          <mxGeometry width="50" height="50" relative="1" as="geometry">
            <mxPoint x="480" y="200" as="sourcePoint" />
            <mxPoint x="530" y="150" as="targetPoint" />
          </mxGeometry>
        </mxCell>
        <mxCell id="3YORw4eYY-1OEMy_Ppgu-114" value="" style="endArrow=classic;html=1;rounded=0;entryX=1;entryY=0.5;entryDx=0;entryDy=0;linecap=round;" edge="1" parent="1" target="3YORw4eYY-1OEMy_Ppgu-75">
          <mxGeometry width="50" height="50" relative="1" as="geometry">
            <mxPoint x="480" y="200" as="sourcePoint" />
            <mxPoint x="615" y="425" as="targetPoint" />
          </mxGeometry>
        </mxCell>
        <mxCell id="3YORw4eYY-1OEMy_Ppgu-115" value="" style="endArrow=none;html=1;rounded=0;linecap=round;" edge="1" parent="1">
          <mxGeometry width="50" height="50" relative="1" as="geometry">
            <mxPoint x="1070" y="200" as="sourcePoint" />
            <mxPoint x="1120" y="150" as="targetPoint" />
          </mxGeometry>
        </mxCell>
        <mxCell id="3YORw4eYY-1OEMy_Ppgu-116" value="" style="endArrow=classic;html=1;rounded=0;entryX=1;entryY=0.5;entryDx=0;entryDy=0;linecap=round;" edge="1" parent="1" target="3YORw4eYY-1OEMy_Ppgu-82">
          <mxGeometry width="50" height="50" relative="1" as="geometry">
            <mxPoint x="1070" y="200" as="sourcePoint" />
            <mxPoint x="615" y="425" as="targetPoint" />
          </mxGeometry>
        </mxCell>
        <mxCell id="3YORw4eYY-1OEMy_Ppgu-117" value="" style="endArrow=none;html=1;rounded=0;entryX=0.5;entryY=1;entryDx=0;entryDy=0;linecap=round;" edge="1" parent="1" source="3YORw4eYY-1OEMy_Ppgu-136" target="3YORw4eYY-1OEMy_Ppgu-31">
          <mxGeometry width="50" height="50" relative="1" as="geometry">
            <mxPoint x="1050" y="100" as="sourcePoint" />
            <mxPoint x="615" y="425" as="targetPoint" />
          </mxGeometry>
        </mxCell>
        <mxCell id="3YORw4eYY-1OEMy_Ppgu-118" value="" style="endArrow=none;html=1;rounded=0;entryX=0.5;entryY=1;entryDx=0;entryDy=0;linecap=round;" edge="1" parent="1">
          <mxGeometry width="50" height="50" relative="1" as="geometry">
            <mxPoint x="1140" y="130" as="sourcePoint" />
            <mxPoint x="1140" y="60" as="targetPoint" />
          </mxGeometry>
        </mxCell>
        <mxCell id="3YORw4eYY-1OEMy_Ppgu-119" value="ADD" style="whiteSpace=wrap;html=1;aspect=fixed;linecap=round;" vertex="1" parent="1">
          <mxGeometry x="930" y="270" width="60" height="60" as="geometry" />
        </mxCell>
        <mxCell id="3YORw4eYY-1OEMy_Ppgu-120" value="" style="endArrow=classic;html=1;rounded=0;exitX=0.5;exitY=1;exitDx=0;exitDy=0;entryX=0.5;entryY=0;entryDx=0;entryDy=0;linecap=round;" edge="1" parent="1" source="3YORw4eYY-1OEMy_Ppgu-12" target="3YORw4eYY-1OEMy_Ppgu-119">
          <mxGeometry width="50" height="50" relative="1" as="geometry">
            <mxPoint x="565" y="475" as="sourcePoint" />
            <mxPoint x="615" y="425" as="targetPoint" />
          </mxGeometry>
        </mxCell>
        <mxCell id="3YORw4eYY-1OEMy_Ppgu-121" value="" style="endArrow=classic;html=1;rounded=0;entryX=1;entryY=0.5;entryDx=0;entryDy=0;linecap=round;" edge="1" parent="1" target="3YORw4eYY-1OEMy_Ppgu-119">
          <mxGeometry width="50" height="50" relative="1" as="geometry">
            <mxPoint x="1020" y="300" as="sourcePoint" />
            <mxPoint x="615" y="425" as="targetPoint" />
          </mxGeometry>
        </mxCell>
        <mxCell id="3YORw4eYY-1OEMy_Ppgu-122" value="" style="endArrow=none;html=1;rounded=0;linecap=round;" edge="1" parent="1">
          <mxGeometry width="50" height="50" relative="1" as="geometry">
            <mxPoint x="1020" y="300" as="sourcePoint" />
            <mxPoint x="1050" y="270" as="targetPoint" />
          </mxGeometry>
        </mxCell>
        <mxCell id="3YORw4eYY-1OEMy_Ppgu-123" value="" style="endArrow=none;html=1;rounded=0;linecap=round;" edge="1" parent="1">
          <mxGeometry width="50" height="50" relative="1" as="geometry">
            <mxPoint x="1050" y="270" as="sourcePoint" />
            <mxPoint x="1050" y="100" as="targetPoint" />
          </mxGeometry>
        </mxCell>
        <mxCell id="3YORw4eYY-1OEMy_Ppgu-125" value="" style="endArrow=none;html=1;rounded=0;entryX=0.5;entryY=1;entryDx=0;entryDy=0;linecap=round;" edge="1" parent="1">
          <mxGeometry width="50" height="50" relative="1" as="geometry">
            <mxPoint x="1050" y="100" as="sourcePoint" />
            <mxPoint x="1050" y="105" as="targetPoint" />
          </mxGeometry>
        </mxCell>
        <mxCell id="3YORw4eYY-1OEMy_Ppgu-127" value="" style="endArrow=none;html=1;rounded=0;linecap=round;" edge="1" parent="1" target="3YORw4eYY-1OEMy_Ppgu-126">
          <mxGeometry width="50" height="50" relative="1" as="geometry">
            <mxPoint x="1120" y="150" as="sourcePoint" />
            <mxPoint x="1140" y="130" as="targetPoint" />
          </mxGeometry>
        </mxCell>
        <mxCell id="3YORw4eYY-1OEMy_Ppgu-126" value="" style="ellipse;whiteSpace=wrap;html=1;aspect=fixed;fillStyle=solid;fillColor=#000000;snapToPoint=0;linecap=round;" vertex="1" parent="1">
          <mxGeometry x="1115" y="145" width="10" height="10" as="geometry" />
        </mxCell>
        <mxCell id="3YORw4eYY-1OEMy_Ppgu-128" value="" style="endArrow=classic;html=1;rounded=0;entryX=0.5;entryY=0;entryDx=0;entryDy=0;linecap=round;" edge="1" parent="1">
          <mxGeometry width="50" height="50" relative="1" as="geometry">
            <mxPoint x="960" y="450" as="sourcePoint" />
            <mxPoint x="870" y="540" as="targetPoint" />
          </mxGeometry>
        </mxCell>
        <mxCell id="3YORw4eYY-1OEMy_Ppgu-129" value="" style="endArrow=none;html=1;rounded=0;entryX=0.5;entryY=1;entryDx=0;entryDy=0;linecap=round;" edge="1" parent="1" target="3YORw4eYY-1OEMy_Ppgu-119">
          <mxGeometry width="50" height="50" relative="1" as="geometry">
            <mxPoint x="960" y="450" as="sourcePoint" />
            <mxPoint x="615" y="425" as="targetPoint" />
          </mxGeometry>
        </mxCell>
        <mxCell id="3YORw4eYY-1OEMy_Ppgu-130" value="" style="endArrow=classic;html=1;rounded=0;entryX=0.5;entryY=0;entryDx=0;entryDy=0;linecap=round;" edge="1" parent="1" source="3YORw4eYY-1OEMy_Ppgu-132" target="3YORw4eYY-1OEMy_Ppgu-75">
          <mxGeometry width="50" height="50" relative="1" as="geometry">
            <mxPoint x="420" y="100" as="sourcePoint" />
            <mxPoint x="615" y="425" as="targetPoint" />
          </mxGeometry>
        </mxCell>
        <mxCell id="3YORw4eYY-1OEMy_Ppgu-131" value="" style="endArrow=classic;html=1;rounded=0;entryX=0.5;entryY=0;entryDx=0;entryDy=0;linecap=round;" edge="1" parent="1" source="3YORw4eYY-1OEMy_Ppgu-134">
          <mxGeometry width="50" height="50" relative="1" as="geometry">
            <mxPoint x="780" y="100" as="sourcePoint" />
            <mxPoint x="780" y="170" as="targetPoint" />
          </mxGeometry>
        </mxCell>
        <mxCell id="3YORw4eYY-1OEMy_Ppgu-133" value="" style="endArrow=classic;html=1;rounded=0;entryX=0.5;entryY=0;entryDx=0;entryDy=0;linecap=round;" edge="1" parent="1" target="3YORw4eYY-1OEMy_Ppgu-132">
          <mxGeometry width="50" height="50" relative="1" as="geometry">
            <mxPoint x="420" y="100" as="sourcePoint" />
            <mxPoint x="420" y="170" as="targetPoint" />
          </mxGeometry>
        </mxCell>
        <mxCell id="3YORw4eYY-1OEMy_Ppgu-132" value="" style="ellipse;whiteSpace=wrap;html=1;aspect=fixed;fillStyle=solid;fillColor=#000000;snapToPoint=0;linecap=round;" vertex="1" parent="1">
          <mxGeometry x="415" y="95" width="10" height="10" as="geometry" />
        </mxCell>
        <mxCell id="3YORw4eYY-1OEMy_Ppgu-135" value="" style="endArrow=classic;html=1;rounded=0;entryX=0.5;entryY=0;entryDx=0;entryDy=0;linecap=round;" edge="1" parent="1" target="3YORw4eYY-1OEMy_Ppgu-134">
          <mxGeometry width="50" height="50" relative="1" as="geometry">
            <mxPoint x="780" y="100" as="sourcePoint" />
            <mxPoint x="780" y="170" as="targetPoint" />
          </mxGeometry>
        </mxCell>
        <mxCell id="3YORw4eYY-1OEMy_Ppgu-134" value="" style="ellipse;whiteSpace=wrap;html=1;aspect=fixed;fillStyle=solid;fillColor=#000000;snapToPoint=0;linecap=round;" vertex="1" parent="1">
          <mxGeometry x="775" y="95" width="10" height="10" as="geometry" />
        </mxCell>
        <mxCell id="3YORw4eYY-1OEMy_Ppgu-137" value="" style="endArrow=none;html=1;rounded=0;entryX=0.5;entryY=1;entryDx=0;entryDy=0;linecap=round;" edge="1" parent="1" target="3YORw4eYY-1OEMy_Ppgu-136">
          <mxGeometry width="50" height="50" relative="1" as="geometry">
            <mxPoint x="1050" y="100" as="sourcePoint" />
            <mxPoint x="1050" y="60" as="targetPoint" />
          </mxGeometry>
        </mxCell>
        <mxCell id="3YORw4eYY-1OEMy_Ppgu-136" value="" style="ellipse;whiteSpace=wrap;html=1;aspect=fixed;fillStyle=solid;fillColor=#000000;snapToPoint=0;linecap=round;" vertex="1" parent="1">
          <mxGeometry x="1045" y="95" width="10" height="10" as="geometry" />
        </mxCell>
      </root>
    </mxGraphModel>
  </diagram>
</mxfile>
